<svg width="1351" height="789" viewBox="0 0 1351 789" fill="none" xmlns="http://www.w3.org/2000/svg">
<path d="M391 400H12V549H391V400Z" fill="#F2F6FB"/>
<path d="M0 559V206C0 150.772 44.7715 106 100 106H300C355.228 106 400 150.772 400 206V559V598H0V559ZM75 123.69V339H14V272.5V545H386V339H327V124.324C318.509 121.518 309.432 120 300 120H100C91.3049 120 82.9112 121.29 75 123.69Z" fill="#D8DEED"/>
<path d="M109 120V322H75V123.69C82.9112 121.29 91.3049 120 100 120H109ZM327 322H297V120H300C309.432 120 318.509 121.518 327 124.324V322ZM0 545H400V565H0V545Z" fill="#E1E5F0"/>
<path d="M1344 599H965V748H1344V599Z" fill="#F2F6FB"/>
<path d="M1034 311V349C1034 387.108 1003.11 418 965 418V380C965 341.892 995.892 311 1034 311ZM1268 311C1306.11 311 1337 341.892 1337 380V418C1298.89 418 1268 387.108 1268 349V311ZM951 736H1351V755H951V736Z" fill="#E1E5F0"/>
<path d="M992.192 412.435C983.848 416.017 974.655 418 965 418V539H1026L992.192 412.435ZM1337 418C1327.34 418 1318.15 416.017 1309.81 412.435L1276 539H1337V418ZM1351 755V789H951V755H1351ZM951 736V397C951 341.772 995.772 297 1051 297H1251C1306.23 297 1351 341.772 1351 397V736H951ZM1337 736V397C1337 349.504 1298.5 311 1251 311H1051C1003.5 311 965 349.504 965 397V736H1337Z" fill="#D8DEED"/>
<path d="M1124.71 559.68L1146.51 553.18C1178.21 548.48 1206.11 561.98 1214.11 591.18L1249.02 738.779L1249.31 740H1201.79H1118.82L1088.11 636.28C1080.01 606.98 1095.91 567.88 1124.71 559.68Z" fill="#FF5645"/>
<path d="M1209.01 646.38L1153.71 634.08C1151.91 633.68 1150.81 631.88 1151.21 630.08L1152.91 622.58C1153.31 620.78 1155.11 619.68 1156.91 620.08L1212.21 632.38C1214.01 632.78 1215.11 634.58 1214.71 636.38L1213.01 643.88C1212.61 645.58 1210.81 646.78 1209.01 646.38Z" fill="#FF4B38"/>
<path d="M1107.61 570.114C1107.61 570.114 1105.71 577.714 1115.81 575.614C1125.91 573.514 1128.81 572.514 1128.81 572.514L1126.21 565.614L1107.61 570.114Z" fill="#482D1F"/>
<path d="M1221.61 726.114C1229.41 711.114 1237.64 674.656 1246.31 616.739L1192.01 620.429C1186.21 642.219 1183.31 653.114 1183.31 653.114L1162.91 556.214C1157.91 547.214 1147.71 552.414 1136.91 562.014C1136.31 562.614 1123.61 556.014 1123.41 556.214C1130.81 598.814 1127.61 643.914 1135.01 686.514C1139.51 710.457 1147.73 729.116 1159.68 742.49C1163.49 746.761 1168.48 749.807 1174.03 751.244C1194.3 756.501 1210.16 748.124 1221.61 726.114Z" fill="#DB9E75"/>
<path d="M1183.71 653.214L1193.61 686.614" stroke="#482D1F" stroke-width="3" stroke-linecap="round" stroke-linejoin="round"/>
<path d="M1160.81 567.814C1160.41 568.014 1159.81 568.214 1159.31 568.114L1133.21 568.814L1114.91 569.214C1108.71 571.714 1095.71 575.914 1094.31 567.014C1094.31 567.014 1111.51 559.914 1123.61 554.714L1124.51 553.914C1125.31 553.214 1126.01 552.814 1127.01 552.514C1127.21 552.414 1127.41 552.414 1127.61 552.414L1132.41 551.714L1142.81 550.214L1149.61 549.214L1154.61 548.514C1159.21 547.814 1163.31 551.514 1163.21 556.114L1163.11 562.214C1163.81 564.414 1162.81 567.014 1160.81 567.814Z" fill="#DB9E75"/>
<path d="M1249.98 601.251C1248.9 624.104 1244.57 632.159 1222.64 630.858C1211.34 630.208 1190.24 636.144 1183.34 627.876C1180.18 624.067 1160.22 554.047 1182.15 555.348C1204.25 556.556 1251.06 578.306 1249.98 601.251Z" fill="#FF5645"/>
<path d="M1135.91 565.201C1135.91 565.201 1139.1 572.356 1128.79 572.042C1118.48 571.727 1115.45 571.246 1115.45 571.246L1116.81 563.999L1135.91 565.201Z" fill="#482D1F"/>
<path d="M1063.46 735.201C1052.3 727.251 1054.4 692.81 1069.77 631.876C1072.99 616.226 1076.84 615.115 1081.3 628.544C1088 648.687 1079.49 654.533 1079.49 654.533L1087.41 556.76C1090.77 547.028 1097.07 549.181 1109.37 556.76C1110.06 557.247 1121.42 548.542 1121.66 548.704C1121.77 591.942 1132.75 635.801 1132.86 679.039C1132.65 697.599 1131.73 712.757 1130.09 724.51C1128.58 735.389 1120.4 744.145 1109.64 746.384C1093.92 749.657 1078.53 745.93 1063.46 735.201Z" fill="#DB9E75"/>
<path d="M1079.12 654.701L1075.17 689.313" stroke="#482D1F" stroke-width="3" stroke-linecap="round" stroke-linejoin="round"/>
<path d="M1088.6 572.257C1089.03 572.384 1089.65 572.477 1090.13 572.292L1115.95 568.449L1134.05 565.665C1140.59 567.05 1154.12 568.929 1153.95 559.921C1153.95 559.921 1135.78 555.916 1122.96 552.896L1121.93 552.264C1121.03 551.714 1120.27 551.442 1119.23 551.32C1119.02 551.256 1118.82 551.291 1118.62 551.325L1113.77 551.47L1103.27 551.798L1096.4 551.994L1091.35 552.173C1086.7 552.283 1083.31 556.638 1084.2 561.151L1085.36 567.141C1085.05 569.429 1086.49 571.816 1088.6 572.257Z" fill="#DB9E75"/>
<path d="M1117.82 556.395C1107.51 556.081 1102.75 551.075 1103.65 551.558L1132.47 551.558C1129.58 554.992 1124.69 556.605 1117.82 556.395Z" fill="#482D1F"/>
<path d="M1081.22 634.293C1075.17 634.293 1064.57 632.034 1060.92 628.745C1057.05 625.288 1061.1 575.479 1086.4 569.192L1081.22 634.293Z" fill="#FF5645"/>
<path d="M1187.74 504.03C1199.21 515.696 1210.15 533.224 1205.5 541.296C1202.18 547.135 1195.16 548.981 1187.85 550.751C1180.98 552.43 1167.56 554.63 1150.04 549.314C1145.05 547.459 1139.89 545.456 1134.93 543.505" fill="#482D1F"/>
<path d="M1096.37 500.77C1086.38 506.376 1075.45 515.87 1076.94 522.275C1078.01 526.805 1082.38 529.425 1086.85 532.072C1091.05 534.544 1099.64 538.812 1112.47 538.834C1116.26 538.606 1119.97 538.256 1123.79 537.932" fill="#482D1F"/>
<path d="M1162.45 529.244C1159.71 530.993 1156.89 531.479 1154.99 531.593C1153.83 531.694 1152.82 532.357 1152.37 533.271L1147.71 550.253C1147.71 550.253 1144.54 550.119 1143.88 550.253C1142.11 550.709 1137.8 551.728 1128.41 552.734C1119.42 553.844 1119.98 553.684 1119.35 553.722C1112.83 553.733 1107.64 552.239 1106.7 551.884C1098.74 549.13 1093.23 531.815 1094.7 509.329C1094.78 507.487 1095.15 505.723 1095.42 503.932L1099.28 486.435C1100.12 482.52 1101.93 478.863 1104.67 475.974C1105.83 474.732 1106.97 473.587 1108.12 472.757C1121.64 462.093 1139.61 468.46 1142.79 469.726C1143.18 469.83 1143.54 470.03 1143.92 470.133C1147.36 471.986 1150.57 473.156 1154.07 473.991C1155.61 474.405 1156.53 475.997 1156.22 477.569L1150.07 502.426C1149.55 504.77 1151.92 506.75 1154.14 505.793C1154.14 505.793 1154.24 505.819 1154.26 505.722C1154.6 505.607 1157.02 504.702 1159.68 505.207C1164.42 506.063 1168.27 511.028 1168.74 516.227C1169.3 521.864 1166.35 526.666 1162.45 529.244Z" fill="#DB9E75"/>
<path d="M1099.03 505.933C1099.14 504.722 1098.41 503.594 1097.25 503.284C1096.48 503.077 1095.7 503.282 1095.05 504.557C1093.54 507.466 1095.35 512.712 1097.07 511.31C1098.34 510.409 1098.78 507.627 1099.03 505.933Z" fill="#482D1F"/>
<path d="M1116.38 509.961C1116.49 508.75 1115.76 507.622 1114.6 507.311C1113.83 507.104 1113.05 507.309 1112.4 508.584C1110.89 511.494 1112.7 516.739 1114.42 515.337C1115.72 514.34 1116.25 511.584 1116.38 509.961Z" fill="#482D1F"/>
<path d="M1106.32 528.178C1107.05 528.166 1108.84 528.027 1109.42 527.042C1109.47 526.849 1109.64 526.585 1109.6 526.366C1109.37 525.683 1108.03 525.636 1106.24 525.363C1103.07 524.825 1100.64 523.862 1100.64 523.862C1100.64 523.862 1100.9 526.001 1101.25 526.613C1101.8 528.418 1105.18 528.183 1106.32 528.178Z" fill="#482D1F"/>
<path d="M1093.77 496.555C1092.86 496.103 1092.79 494.84 1093.64 494.345C1094.72 493.805 1096.43 493.227 1098.38 493.648C1102.4 494.516 1106.12 497.999 1101.51 498.213C1098.55 498.454 1095.53 497.336 1093.77 496.555Z" fill="#482D1F"/>
<path d="M1188.71 491.141C1186.79 487.107 1184.07 484.514 1182.9 483.475C1176.44 477.812 1170.23 478.217 1155.62 473.993C1152.63 473.191 1148.14 471.781 1142.79 469.726C1142.38 469.719 1142.02 469.519 1141.63 469.416C1138.45 468.149 1121.03 462.447 1108.19 472.88C1108.14 473.073 1106.09 474.178 1106.23 474.423C1106.23 474.423 1106.25 474.739 1106.43 475.203C1106.39 474.984 1106.37 474.668 1106.32 474.449C1108.05 475.74 1110 477.713 1112.48 478.895C1119.46 482.214 1126.05 482.737 1130.13 482.588C1130.67 485.216 1131.51 488.239 1132.87 491.293C1136.74 500.407 1142.88 506.089 1146.95 509.044C1145.79 511.838 1144.63 514.632 1143.49 517.33C1143.97 517.46 1144.36 517.563 1144.87 517.596C1144.87 517.596 1152.68 517.412 1154.37 521.176C1154.74 522.104 1154.7 523.025 1154.54 523.605C1153.27 531.442 1145.65 540.168 1147.21 542.863C1148.78 545.873 1162.02 543.621 1172.77 536.355C1175.69 534.342 1183.56 528.896 1188.09 518.202C1189.26 514.583 1194.24 502.562 1188.71 491.141Z" fill="#482D1F"/>
<path d="M1112.51 501.576C1111.6 501.124 1111.52 499.861 1112.48 499.392C1113.55 498.852 1115.26 498.274 1117.32 498.721C1121.33 499.589 1125.03 503.169 1120.44 503.286C1117.38 503.501 1114.37 502.383 1112.51 501.576Z" fill="#482D1F"/>
<path d="M1139.72 519.426L1146.85 509.43C1146.85 509.43 1149.03 506.702 1152.87 505.141C1153.21 505.026 1155.62 504.12 1158.28 504.626C1163.02 505.482 1166.87 510.446 1167.34 515.645C1167.95 521.089 1165.04 525.794 1161.23 528.399C1157.43 531.003 1153.33 530.837 1152 530.79L1147 529.348" fill="#DB9E75"/>
<path d="M1106.14 502.56L1104.81 508.311L1100.88 518.336C1100.72 518.915 1100.96 519.598 1101.51 519.85C1102.74 520.283 1103.9 520.594 1106.12 521.189" stroke="#482D1F" stroke-width="2" stroke-linecap="round" stroke-linejoin="round"/>
<path d="M1160.81 543.504L1159.97 551.664L1147.91 550.297C1146.19 550.147 1145.08 548.503 1145.32 546.809L1145.97 543.254L1148.77 536.655L1160.81 543.504Z" fill="#482D1F"/>
<path d="M283.562 503.689C283.637 508.634 283.7 513.736 283.7 518.899C283.7 518.899 285.9 541.001 275.9 550.251C274.8 551.322 273.5 552.101 272.4 552.783C270.1 554.146 268.1 554.73 268.1 554.73C268.1 554.73 268 554.827 267.9 554.827C251.9 559.111 238.8 557.846 231.9 558.04C209.7 558.527 191.7 558.43 176.1 557.943C166.6 557.651 126.3 560.28 121.2 552.88C121.1 552.685 121 552.49 120.9 552.296C120 550.251 119.3 547.719 118.8 544.701C118.7 544.409 118.6 544.02 118.6 543.727C116.948 533.9 116.791 519.625 118.469 502.525L70.4478 498.585C67.3044 498.327 64.8973 495.679 64.939 492.525C65.1531 476.33 66.0304 465.235 67.5709 459.242C74.693 431.534 88.3032 419.55 89.5053 415.258C96.3389 390.474 103.132 381.678 105.878 379.026C109.034 375.88 112.072 373.733 114.096 372.368C127.756 363.305 142.078 362.155 149.381 362.083C149.582 361.986 149.782 361.99 149.982 361.993L185.486 362.113C188.375 362.04 188.962 361.928 188.393 362.583C192.734 361.987 197.697 361.388 203.1 360.874C211.138 360.995 218.432 361.433 224.982 362.186L254.84 362.607C255.04 362.607 255.24 362.607 255.44 362.707C262.74 362.907 277.04 364.307 290.54 373.607C292.54 375.007 295.54 377.207 298.64 380.407C301.34 383.107 307.978 392.019 314.378 416.919C315.505 421.231 328.904 433.452 335.541 461.28C336.977 467.299 337.661 478.407 337.592 494.604C337.579 497.757 335.126 500.363 331.978 500.566L283.562 503.689H283.562Z" fill="#DE3190"/>
<path d="M112.1 552.088L114 551.088L147.2 533.388C147.2 533.388 227.7 514.607 274 506.007C282 500.307 329.6 501.588 330.9 500.288C334.2 532.088 338.398 563.836 298.217 563.836L96.6001 560.388L112.1 552.088Z" fill="#F2A98A"/>
<path d="M143.8 471.788C145.8 465.288 155.4 435.388 157.7 429.188" stroke="#482D1F" stroke-width="3" stroke-linecap="round" stroke-linejoin="round"/>
<path d="M260.929 429.188L274.709 502.956" stroke="#482D1F" stroke-width="3" stroke-linecap="round" stroke-linejoin="round"/>
<path d="M194.565 326.057L217.9 335.288L218.1 340.188V340.288L217.5 367.488C217.5 368.288 216.9 369.088 216.1 369.288C212.1 370.488 205 371.888 196.7 369.988C192.1 368.988 188.4 367.188 185.8 365.588C185.2 365.288 184.9 364.588 184.9 363.888L185.965 332.607C183.108 329.708 179.086 325.407 176.7 321.888C174.7 318.988 168.1 311.988 166.3 300.588C165.8 296.788 163.9 283.988 171.8 274.088C174.6 270.588 177.8 268.788 179.2 268.088C186.7 264.088 192.6 265.888 207.5 265.288C208.7 265.188 210.7 265.188 213.2 264.988C217.8 264.688 221 264.288 221.9 264.188C229.3 263.388 245.4 264.788 253.1 275.488C253.5 276.188 254 276.888 254.5 277.488C252.5 278.388 250.2 279.788 247.6 280.388C240.2 281.988 233.8 280.888 229.8 279.788C222.7 287.388 215.6 294.988 208.5 302.488C204.713 307.789 198.823 318.248 194.565 326.057Z" fill="#F2A98A"/>
<path d="M219.5 346.688L203.8 343.788L217.4 360.388L219.5 346.688Z" fill="#482D1F"/>
<path d="M258.7 291.388L258.3 309.288C258.2 311.088 258.1 312.888 257.7 314.688C255.5 327.388 251.4 337.988 246.8 344.788C243.4 349.888 239.6 352.888 236 353.188C235 353.388 229.6 353.588 223.3 351.988C222.7 351.788 223.2 352.088 214.7 348.888C211.4 347.688 208.8 346.688 206.8 345.788C203.2 344.288 201.3 343.288 200.3 342.688C199.6 342.388 199.4 342.188 199.4 342.188C194.7 333.188 190.7 324.988 187.3 317.788C185.3 313.488 183.2 309.188 184.3 303.888C184.7 301.788 185.8 296.588 190.4 293.888C194.9 291.288 199.9 292.588 201.3 292.988C203.2 293.488 204.7 294.288 205.6 294.888L205.5 269.288C205.5 267.688 206.8 266.288 208.4 266.288C211.9 266.188 215.4 265.888 219.1 264.888C219.5 264.788 219.9 264.788 220.3 264.688C223.7 264.188 242.7 262.188 253.3 275.788C254.3 276.888 255.1 278.188 255.9 279.788C257.8 283.488 258.8 287.388 258.7 291.388Z" fill="#F2A98A"/>
<path d="M254.5 277.488C252.5 278.388 250.2 279.788 247.5 280.388C240 281.988 233.4 280.888 229.4 279.788C222.2 287.388 212.4 297.488 205.1 305.088C191.5 305.688 180.5 303.688 166.9 304.288C166.9 304.288 165.6 302.888 164.9 300.788C163.9 297.788 161.8 284.888 170.5 274.288C173.3 270.788 176.6 268.988 178 268.288C185.6 264.288 191.6 266.088 206.8 265.488C208 265.388 210 265.388 212.6 265.188C217.3 264.888 220.5 264.488 221.5 264.388C229 263.588 245.4 264.988 253.2 275.688C253.5 276.188 254 276.888 254.5 277.488Z" fill="#482D1F"/>
<path d="M207.7 315.088L206.4 302.288C206.4 302.288 205.8 298.688 203.1 295.288C202.9 295.088 201.1 292.988 198.4 292.088C193.6 290.488 187.6 292.988 184.4 297.488C181.1 302.088 181.4 307.988 183.6 312.388C185.8 316.788 189.6 318.588 190.9 319.188L196.2 320.288L207.7 315.088Z" fill="#F2A98A"/>
<path d="M247.4 310.688C247.4 309.488 248.2 308.388 249.4 308.188C250.2 308.088 250.9 308.288 251.4 309.588C252.7 312.688 250.5 317.688 248.8 316.188C247.8 315.188 247.5 312.388 247.4 310.688Z" fill="#482D1F"/>
<path d="M229.5 310.488C229.6 309.288 230.6 308.288 231.8 308.288C232.6 308.288 233.3 308.588 233.7 309.888C234.7 313.088 231.9 317.888 230.4 316.188C229.4 314.988 229.4 312.188 229.5 310.488Z" fill="#482D1F"/>
<path d="M237.7 331.088C237 330.888 235.3 330.388 235 329.288C235 329.088 234.9 328.788 235 328.588C235.4 327.888 236.6 328.288 238.4 328.388C241.6 328.588 244.2 328.288 244.2 328.288C244.2 328.288 243.5 330.288 243 330.888C241.9 332.388 238.7 331.388 237.7 331.088Z" fill="#482D1F"/>
<path d="M255.2 303.688C256.2 303.488 256.5 302.188 255.8 301.488C254.9 300.688 253.3 299.888 251.3 299.888C247.2 299.888 242.8 302.588 247.4 303.788C250.1 304.588 253.3 304.088 255.2 303.688Z" fill="#482D1F"/>
<path d="M234.6 304.388C235.6 304.188 235.9 302.888 235.1 302.188C234.2 301.388 232.6 300.588 230.5 300.588C226.4 300.588 222 303.388 226.6 304.488C229.5 305.288 232.6 304.788 234.6 304.388Z" fill="#482D1F"/>
<path d="M243.5 304.988V310.888L245 321.588C245.1 322.188 244.6 322.788 244 322.888C242.7 322.988 241.5 323.088 239.2 323.088" stroke="#482D1F" stroke-width="2" stroke-linecap="round" stroke-linejoin="round"/>
<path d="M181.3 302.788C180.8 305.988 181.4 309.388 182.8 312.088C185 316.488 188.8 318.288 190.1 318.888" stroke="#482D1F" stroke-width="2" stroke-linecap="round" stroke-linejoin="round"/>
<path d="M170.64 448.639C179.272 413.007 185.081 391.887 188.067 385.281C191.017 378.753 191.444 383.528 193.514 386.241C194.587 387.647 194.153 384.177 195.821 384.471C199.08 385.046 200.999 387.249 201.578 391.08C204.465 392.754 205.681 394.879 205.227 397.457C204.898 399.325 207.506 403.195 202.01 426.163C200.057 434.322 205.24 445.478 203.233 454.219L203.316 454.233C198.368 472.825 182.163 501.389 154.7 539.925C113.505 597.728 78.5 567.448 69.0983 560.948C62.8305 556.614 62.8305 535.728 69.0983 498.288L114.607 502.088L170.64 448.639Z" fill="#F2A98A"/>
<path d="M113.9 502.088L104.051 507.921" stroke="#482D1F" stroke-width="3" stroke-linecap="round" stroke-linejoin="round"/>
<path d="M163 528L138 559" stroke="#482D1F" stroke-width="3" stroke-linecap="round" stroke-linejoin="round"/>
<path d="M865 343H505C493.954 343 485 351.954 485 363V621C485 632.046 493.954 641 505 641H865C876.046 641 885 632.046 885 621V363C885 351.954 876.046 343 865 343Z" fill="#F2F6FB"/>
<path d="M548.55 462.873C528.617 462.873 512.459 446.701 512.459 426.752C512.459 406.802 528.617 390.63 548.55 390.63C568.482 390.63 584.641 406.802 584.641 426.752C584.641 446.701 568.482 462.873 548.55 462.873ZM548.531 426.263C553.446 426.263 557.43 422.33 557.43 417.477C557.43 412.625 553.446 408.691 548.531 408.691C543.617 408.691 539.632 412.625 539.632 417.477C539.632 422.33 543.617 426.263 548.531 426.263ZM548.531 430.657C539.623 430.657 532.402 437.786 532.402 446.582H564.661C564.661 437.786 557.44 430.657 548.531 430.657ZM548.55 596.521C528.617 596.521 512.459 580.349 512.459 560.4C512.459 540.451 528.617 524.279 548.55 524.279C568.482 524.279 584.641 540.451 584.641 560.4C584.641 580.349 568.482 596.521 548.55 596.521ZM548.531 559.912C553.446 559.912 557.43 555.978 557.43 551.126C557.43 546.273 553.446 542.339 548.531 542.339C543.617 542.339 539.632 546.273 539.632 551.126C539.632 555.978 543.617 559.912 548.531 559.912ZM548.531 564.305C539.623 564.305 532.402 571.435 532.402 580.23H564.661C564.661 571.435 557.44 564.305 548.531 564.305ZM604.686 553.176H795.577C796.682 553.176 797.577 554.071 797.577 555.176V565.624C797.577 566.729 796.682 567.624 795.577 567.624H604.686C603.582 567.624 602.686 566.729 602.686 565.624V555.176C602.686 554.071 603.582 553.176 604.686 553.176ZM604.686 576.655H777.532C778.636 576.655 779.532 577.55 779.532 578.655V589.103C779.532 590.208 778.636 591.103 777.532 591.103H604.686C603.582 591.103 602.686 590.208 602.686 589.103V578.655C602.686 577.55 603.582 576.655 604.686 576.655Z" fill="#D8DEED"/>
<path d="M800.686 390.63H606.686C604.477 390.63 602.686 392.421 602.686 394.63V494.994C602.686 497.203 604.477 498.994 606.686 498.994H800.686C802.895 498.994 804.686 497.203 804.686 494.994V394.63C804.686 392.421 802.895 390.63 800.686 390.63Z" fill="#3ABF7C"/>
<path fill-rule="evenodd" clip-rule="evenodd" d="M705.308 462.78L703.413 462.805L703.428 462.78H678.604C677.496 462.78 677.066 462.027 677.652 461.086L694.9 433.369C695.482 432.433 696.451 432.427 697.057 433.346L709.698 452.684L714.245 445.363C714.827 444.425 715.802 444.395 716.437 445.317L726.974 460.634C727.602 461.547 727.224 462.314 726.109 462.349L717.328 462.621L715.879 462.64L715.964 462.78C715.964 462.78 715.067 462.78 713.957 462.78H705.308ZM715.716 437.054C713.392 437.054 711.507 435.152 711.507 432.806C711.507 430.46 713.392 428.558 715.716 428.558C718.04 428.558 719.925 430.46 719.925 432.806C719.925 435.152 718.04 437.054 715.716 437.054Z" fill="white"/>
<path d="M817.232 529.697H604.686C603.582 529.697 602.686 530.592 602.686 531.697V542.145C602.686 543.25 603.582 544.145 604.686 544.145H817.232C818.336 544.145 819.232 543.25 819.232 542.145V531.697C819.232 530.592 818.336 529.697 817.232 529.697Z" fill="#E1E5F0"/>
<path d="M936 180H563C551.954 180 543 188.954 543 200V285C543 296.046 551.954 305 563 305H936C947.046 305 956 296.046 956 285V200C956 188.954 947.046 180 936 180Z" fill="#D8DEED"/>
<path d="M893.45 279.242C873.517 279.242 857.359 263.07 857.359 243.121C857.359 223.172 873.517 207 893.45 207C913.382 207 929.541 223.172 929.541 243.121C929.541 263.07 913.382 279.242 893.45 279.242ZM893.431 242.633C898.346 242.633 902.33 238.699 902.33 233.847C902.33 228.994 898.346 225.061 893.431 225.061C888.516 225.061 884.532 228.994 884.532 233.847C884.532 238.699 888.516 242.633 893.431 242.633ZM893.431 247.026C884.523 247.026 877.302 254.156 877.302 262.951H909.561C909.561 254.156 902.34 247.026 893.431 247.026ZM581.459 239.509H790.395C791.5 239.509 792.395 240.405 792.395 241.509V251.958C792.395 253.062 791.5 253.958 790.395 253.958H581.459C580.354 253.958 579.459 253.062 579.459 251.958V241.509C579.459 240.405 580.354 239.509 581.459 239.509ZM581.459 262.988H808.441C809.545 262.988 810.441 263.883 810.441 264.988V275.436C810.441 276.541 809.545 277.436 808.441 277.436H581.459C580.354 277.436 579.459 276.541 579.459 275.436V264.988C579.459 263.883 580.354 262.988 581.459 262.988Z" fill="#F2F6FB"/>
<path d="M812.05 216.03H581.459C580.354 216.03 579.459 216.926 579.459 218.03V228.479C579.459 229.583 580.354 230.479 581.459 230.479H812.05C813.154 230.479 814.05 229.583 814.05 228.479V218.03C814.05 216.926 813.154 216.03 812.05 216.03Z" fill="#E1E5F0"/>
<path d="M816 71H443C431.954 71 423 79.9543 423 91V176C423 187.046 431.954 196 443 196H816C827.046 196 836 187.046 836 176V91C836 79.9543 827.046 71 816 71Z" fill="#F2F6FB"/>
<path d="M495.55 169.648C475.617 169.648 459.459 153.476 459.459 133.527C459.459 113.578 475.617 97.4061 495.55 97.4061C515.482 97.4061 531.641 113.578 531.641 133.527C531.641 153.476 515.482 169.648 495.55 169.648ZM495.531 133.039C500.446 133.039 504.43 129.105 504.43 124.253C504.43 119.4 500.446 115.467 495.531 115.467C490.617 115.467 486.632 119.4 486.632 124.253C486.632 129.105 490.617 133.039 495.531 133.039ZM495.531 137.432C486.623 137.432 479.402 144.562 479.402 153.357H511.661C511.661 144.562 504.44 137.432 495.531 137.432ZM551.686 126.303H760.623C761.727 126.303 762.623 127.198 762.623 128.303V138.752C762.623 139.856 761.727 140.752 760.623 140.752H551.686C550.582 140.752 549.686 139.856 549.686 138.752V128.303C549.686 127.198 550.582 126.303 551.686 126.303ZM551.686 149.782H796.714C797.818 149.782 798.714 150.677 798.714 151.782V162.23C798.714 163.335 797.818 164.23 796.714 164.23H551.686C550.582 164.23 549.686 163.335 549.686 162.23V151.782C549.686 150.677 550.582 149.782 551.686 149.782Z" fill="#D8DEED"/>
<path d="M710.095 102.824H551.686C550.582 102.824 549.686 103.72 549.686 104.824V115.273C549.686 116.377 550.582 117.273 551.686 117.273H710.095C711.2 117.273 712.095 116.377 712.095 115.273V104.824C712.095 103.72 711.2 102.824 710.095 102.824Z" fill="#E1E5F0"/>
<path d="M772 692H345C333.954 692 325 700.954 325 712V769C325 780.046 333.954 789 345 789H772C783.046 789 792 780.046 792 769V712C792 700.954 783.046 692 772 692Z" fill="#D8DEED"/>
<path d="M686 727H746C749.195 727 752.037 727.713 754.408 729.018C756.778 730.324 758.676 732.222 759.982 734.592C761.287 736.963 762 739.805 762 743C762 746.195 761.287 749.037 759.982 751.408C758.676 753.778 756.778 755.676 754.408 756.982C752.037 758.287 749.195 759 746 759H686C682.805 759 679.963 758.287 677.592 756.982C675.222 755.676 673.324 753.778 672.018 751.408C670.713 749.037 670 746.195 670 743C670 739.805 670.713 736.963 672.018 734.592C673.324 732.222 675.222 730.324 677.592 729.018C679.963 727.713 682.805 727 686 727Z" fill="#474BFF"/>
<path d="M633 727H367C364.791 727 363 728.791 363 731V755C363 757.209 364.791 759 367 759H633C635.209 759 637 757.209 637 755V731C637 728.791 635.209 727 633 727Z" fill="white"/>
</svg>
