<svg width="1313" height="978" viewBox="0 0 1313 978" fill="none" xmlns="http://www.w3.org/2000/svg">
<path d="M1307 101H665C661.686 101 659 103.686 659 107V850C659 853.314 661.686 856 665 856H1307C1310.31 856 1313 853.314 1313 850V107C1313 103.686 1310.31 101 1307 101Z" fill="#F2F6FB"/>
<path d="M787.878 181V187H712.007C711.446 187 711 187.446 711 187.999H705C705 184.131 708.134 181 712.007 181H787.878ZM881.878 181V187H799.878V181H881.878ZM975.878 181V187H893.878V181H975.878ZM1069.88 181V187H987.878V181H1069.88ZM1163.88 181V187H1081.88V181H1163.88ZM1257.88 181V187H1175.88V181H1257.88ZM1268 272.757H1262V190.757H1268V272.757ZM1237.37 344V338H1260.99C1261.55 338 1262 337.554 1262 337.001V284.757H1268V337.001C1268 340.869 1264.87 344 1260.99 344H1237.37ZM1143.37 344V338H1225.37V344H1143.37ZM1049.37 344V338H1131.37V344H1049.37ZM955.366 344V338H1037.37V344H955.366ZM861.366 344V338H943.366V344H861.366ZM767.366 344V338H849.366V344H767.366ZM705 304.487H711V337.001C711 337.551 711.45 338 712.007 338H755.366V344H712.007C708.139 344 705 340.868 705 337.001V304.487ZM705 210.487H711V292.487H705V210.487ZM705 187.999H711V198.487H705V187.999Z" fill="#D8DEED"/>
<path d="M659 112.004C659 100.956 667.95 92 678.997 92H1293C1304.05 92 1313 100.957 1313 112.004V136H659V112.004Z" fill="#D8DEED"/>
<path d="M688.5 124C693.747 124 698 119.747 698 114.5C698 109.253 693.747 105 688.5 105C683.253 105 679 109.253 679 114.5C679 119.747 683.253 124 688.5 124Z" fill="#FF5645"/>
<path d="M719.5 124C724.747 124 729 119.747 729 114.5C729 109.253 724.747 105 719.5 105C714.253 105 710 109.253 710 114.5C710 119.747 714.253 124 719.5 124Z" fill="#FFCB3D"/>
<path d="M751.5 124C756.747 124 761 119.747 761 114.5C761 109.253 756.747 105 751.5 105C746.253 105 742 109.253 742 114.5C742 119.747 746.253 124 751.5 124Z" fill="#3ABF7C"/>
<path d="M705.091 386.993C705.091 384.788 706.873 383 709.093 383H1260.09C1262.3 383 1264.09 384.783 1264.09 386.993V556.279C1264.09 558.485 1262.31 560.273 1260.09 560.273H709.093C706.883 560.273 705.091 558.489 705.091 556.279V386.993ZM707 592H920C921.105 592 922 592.895 922 594V618C922 619.105 921.105 620 920 620H707C705.895 620 705 619.105 705 618V594C705 592.895 705.895 592 707 592ZM707 638H858C859.105 638 860 638.895 860 640V664C860 665.105 859.105 666 858 666H707C705.895 666 705 665.105 705 664V640C705 638.895 705.895 638 707 638ZM707 685H889C890.105 685 891 685.895 891 687V711C891 712.105 890.105 713 889 713H707C705.895 713 705 712.105 705 711V687C705 685.895 705.895 685 707 685ZM707 731H827C828.105 731 829 731.895 829 733V757C829 758.105 828.105 759 827 759H707C705.895 759 705 758.105 705 757V733C705 731.895 705.895 731 707 731ZM986 638H1206C1207.1 638 1208 638.895 1208 640V664C1208 665.105 1207.1 666 1206 666H986C984.895 666 984 665.105 984 664V640C984 638.895 984.895 638 986 638ZM986 685H1234C1235.1 685 1236 685.895 1236 687V711C1236 712.105 1235.1 713 1234 713H986C984.895 713 984 712.105 984 711V687C984 685.895 984.895 685 986 685ZM986 731H1262C1263.1 731 1264 731.895 1264 733V757C1264 758.105 1263.1 759 1262 759H986C984.895 759 984 758.105 984 757V733C984 731.895 984.895 731 986 731ZM986 777H1178C1179.1 777 1180 777.895 1180 779V803C1180 804.105 1179.1 805 1178 805H986C984.895 805 984 804.105 984 803V779C984 777.895 984.895 777 986 777ZM986.091 592.182H1262.09C1263.2 592.182 1264.09 593.077 1264.09 594.182V618.545C1264.09 619.65 1263.2 620.545 1262.09 620.545H986.091C984.986 620.545 984.091 619.65 984.091 618.545V594.182C984.091 593.077 984.986 592.182 986.091 592.182Z" fill="#E1E5F0"/>
<path fill-rule="evenodd" clip-rule="evenodd" d="M991.074 506.909L986.93 506.959L986.96 506.909H936.254C935.144 506.909 934.718 506.148 935.301 505.212L971.218 447.543C971.802 446.606 972.773 446.6 973.378 447.516L999.272 487.102L1009.23 471.084C1009.81 470.145 1010.79 470.115 1011.41 471.026L1034.33 504.299C1034.95 505.206 1034.57 505.968 1033.46 506.003L1012.35 506.656L1011.44 506.667L1011.59 506.909C1011.59 506.909 1010.69 506.909 1009.58 506.909H991.074ZM1011.1 456.407C1006.54 456.407 1002.83 452.673 1002.83 448.067C1002.83 443.461 1006.54 439.727 1011.1 439.727C1015.67 439.727 1019.37 443.461 1019.37 448.067C1019.37 452.673 1015.67 456.407 1011.1 456.407Z" fill="white"/>
<path d="M145.5 969H247.5C249.985 969 252 971.015 252 973.5C252 975.985 249.985 978 247.5 978H145.5C143.015 978 141 975.985 141 973.5C141 971.015 143.015 969 145.5 969ZM461.5 969H631.5C633.985 969 636 971.015 636 973.5C636 975.985 633.985 978 631.5 978H461.5C459.015 978 457 975.985 457 973.5C457 971.015 459.015 969 461.5 969Z" fill="#FFCB3D"/>
<path d="M632.014 969.029C631.845 969.01 631.674 969 631.5 969H461.5C461.207 969 460.921 969.028 460.644 969.081L468.676 905.01H543.877L561.777 918.21C565.877 922.31 570.377 926.01 575.177 929.31C586.877 937.11 592.977 937.01 610.777 945.61C615.577 947.91 620.177 950.41 624.777 953.31C626.977 955.31 630.877 959.31 632.077 964.11C632.277 964.91 632.277 965.71 632.377 966.41C632.377 967.343 632.24 968.22 632.014 969.029ZM248.784 969.186C248.377 969.065 247.946 969 247.5 969H145.5C145.235 969 144.975 969.023 144.722 969.067L168.877 907.062L240.477 916.762L248.784 969.186Z" fill="#474961"/>
<path d="M216.113 640.236C215.684 640.143 215.254 640.049 214.824 639.955C237.924 505.24 255.535 424.508 267.657 397.76C279.779 371.012 294.065 352.07 310.516 340.936C326.214 323.05 353.901 324.046 392.201 322.925C393.174 322.88 394.279 322.89 395.252 322.843C434.852 322.175 428.266 323.688 438.721 326.923C488.891 340.323 530.51 424.951 563.577 580.807L574.087 631.858C573.937 631.44 573.783 631.028 573.623 630.623C573.909 631.942 574.048 633.28 574.04 634.638C575.098 656.449 558.171 673.543 523.258 685.92C501.927 693.481 460.18 714.293 391.546 720.857C362.408 723.644 308.033 723.04 228.418 719.044C215.262 696.943 209.632 679.251 211.528 665.969C212.568 658.691 214.096 650.113 216.113 640.236H216.113Z" fill="#A339FF"/>
<path opacity="0.176986" d="M216.06 640.498C333.019 665.868 419.442 663.908 475.328 634.619C530.124 605.902 562.868 604.477 573.56 630.343C573.889 631.753 574.049 633.184 574.04 634.638C575.098 656.449 558.171 673.543 523.258 685.92C501.927 693.481 460.18 714.293 391.546 720.857C362.408 723.644 308.033 723.04 228.418 719.044C215.262 696.943 209.632 679.251 211.528 665.969C212.559 658.755 214.069 650.264 216.06 640.498Z" fill="#444444"/>
<path d="M322.532 245.37C311.336 243.647 302.354 241.809 295.588 239.856C290.042 239.077 281.566 236.876 278.242 230.35C273.398 220.985 282.265 208.194 292.16 193.831C304.071 176.622 311.368 170.414 322.848 162.295C342.39 148.474 354.458 147.938 363.213 156.83C364.094 157.725 364.971 159.206 365.844 161.273C368.34 160.909 370.894 160.739 373.49 160.776L395.49 161.176C423.39 161.476 445.59 185.376 445.19 214.276V216.076L444.59 271.776L444.051 297.859C443.679 315.815 429.017 330.176 411.058 330.176H354.959C354.837 330.176 354.714 330.176 354.592 330.174C336.368 329.972 321.758 315.034 321.961 296.81L322.532 245.37Z" fill="#FFCB3D"/>
<path d="M778.91 271.89L23.9463 232.324C18.431 232.035 13.7256 236.272 13.4366 241.787L0.666629 485.452C0.377586 490.968 4.61429 495.673 10.1296 495.962L765.093 535.528C770.609 535.817 775.314 531.58 775.603 526.065L788.373 282.4C788.662 276.884 784.425 272.179 778.91 271.89Z" fill="#D8DEED"/>
<path d="M525.275 334.702L53.9218 309.999C51.7157 309.884 49.8335 311.578 49.7179 313.784L47.2058 361.719C47.0902 363.925 48.7848 365.807 50.991 365.922L522.344 390.625C524.55 390.741 526.432 389.046 526.548 386.84L529.06 338.906C529.176 336.699 527.481 334.817 525.275 334.702Z" fill="white"/>
<path d="M403.429 147.344L402.124 163.955C402.06 164.772 401.503 165.468 400.72 165.709C396.35 167.057 392.103 167.547 387.977 167.178C383.733 166.799 377.49 165.277 369.248 162.612C368.271 162.296 367.692 161.292 367.908 160.289L374.535 129.468L374.924 129.578C371.287 122.231 368.984 118.121 368.014 117.248C364.324 113.714 361.411 91.9007 377.854 93.2155C379.665 93.2263 381.429 93.7447 383.124 94.572L383.234 94.661C383.784 95.106 384.491 95.1323 385.197 95.1586C386.888 94.9809 388.155 93.6411 388.076 91.94L386.243 65.8889C386.066 64.1982 387.233 62.8689 388.924 62.6912C392.604 62.3044 396.163 61.7292 399.759 60.5468C400.256 60.4946 400.644 60.3533 401.041 60.3115C404.58 59.5374 423.649 56.3266 435.487 69.4611C436.528 70.7594 437.569 72.0576 438.412 73.3768C440.578 76.7689 441.792 80.6634 441.933 84.8717L442.741 103.087C442.73 104.898 442.72 106.709 442.52 108.641C440.099 131.519 431.585 148.1 423.085 149.496C418.719 150.055 414.291 150.018 409.879 149.175C409.318 148.964 409.679 149.138 403.429 147.344ZM316.43 656.247L240.477 916.761L168.877 907.061L214.824 639.955L215.051 639.969C215.034 640.068 215.017 640.168 215 640.267C251.828 648.295 285.638 653.622 316.43 656.247ZM450.084 645.306C459.096 642.278 467.511 638.716 475.328 634.619C529.151 606.412 561.698 604.536 572.97 628.991C579.415 649.536 581.259 668.283 578.5 685.234C570.219 736.12 558.678 809.378 543.877 905.01H468.676L469.977 690.312L450.084 645.306ZM282.013 234.536C286.051 237.843 291.757 239.198 295.859 239.775C308.303 243.365 328.238 246.569 355.662 249.387L341.441 305.044L431.516 337.249C431.957 337.344 434.06 338.184 437.824 339.77C476.879 350.895 502.896 360.978 515.874 370.02C525.938 377.031 523.894 386.206 509.743 397.546C498.481 406.572 483.373 409.182 469.735 404.459L411.52 384.299C411.523 384.228 411.526 384.157 411.529 384.085C338.564 376.132 294.64 360.448 279.757 337.033C266.026 315.43 266.778 281.264 282.013 234.536V234.536ZM507.32 257.795C531.393 233.032 553.426 229.049 573.418 245.845C593.411 262.641 571.378 266.624 507.32 257.795Z" fill="#ED9474"/>
<path d="M346.803 106.501C343.771 107.701 340.773 108.163 337.809 107.886C318.198 106.054 304.905 88.8244 299.655 71.9822C294.405 55.14 303.629 46.4995 318.386 37.0759C333.143 27.6523 350.036 34.3712 364.12 41.6553C372.351 45.9128 377.18 53.2978 378.606 63.8103C380.834 63.6085 383.292 63.3537 386.04 62.9944C389.222 62.6599 392.771 61.7956 398.675 60.5717C399.173 60.5195 401.971 59.8284 402.369 59.7866C405.907 59.0125 423.759 56.4157 435.597 69.5502C435.529 69.859 432.468 69.5502 423.509 75.4985C413.306 82.273 403.253 111.963 394.255 111.501C394.157 111.499 393.954 111.599 393.648 111.8L394.046 111.423L388.536 100.137C387.291 97.8546 385.401 96.1427 383.245 94.7606C381.549 93.9333 379.786 93.4148 377.975 93.4041C373.159 93.508 368.374 97.7313 366.897 102.813C365.52 107.885 366.99 113.261 370.868 116.674C373.317 118.931 376.479 120.308 379.823 120.56L383.889 120.055C383.725 120.201 383.559 120.35 383.391 120.501C376.458 131.437 372.991 136.905 372.991 136.905C372.991 136.905 369.989 136.097 363.984 134.48C356.605 131.926 350.878 122.599 346.803 106.501ZM428.165 99.29C426.228 99.9963 423.098 100.828 420.24 100.425C415.461 99.9214 419.544 96.6768 423.8 96.0284C425.778 95.7199 427.453 96.3482 428.531 97.0393C429.301 97.6623 429.138 98.9866 428.165 99.29ZM445.03 97.1152C443.114 98.0204 440.115 99.1401 437.189 99.0454C432.242 98.8614 436.085 95.2399 440.209 94.3037C442.366 93.7753 443.931 94.3147 445.098 94.8959C446.056 95.3985 445.993 96.7123 445.03 97.1152Z" fill="#482D1F"/>
<path d="M422.588 112.244C421.468 111.155 421.573 108.328 421.694 106.606C421.657 105.303 422.767 104.382 423.861 104.267C424.568 104.293 425.505 104.597 425.85 105.968C426.891 109.177 424.09 114.097 422.588 112.244ZM438.987 110.42C438.066 109.31 437.972 106.504 438.093 104.782C438.057 103.479 439.166 102.558 440.26 102.443C440.967 102.469 441.904 102.773 442.249 104.144C443.29 107.353 440.39 112.283 438.987 110.42Z" fill="#482D1F"/>
<path d="M437.193 103.001C437.21 102.449 436.776 101.988 436.223 101.971C435.671 101.955 435.21 102.389 435.194 102.941L435.015 108.892L435.019 109.017L436.028 119.567C436.003 119.689 435.917 119.777 435.789 119.804C434.588 119.797 433.045 119.797 431.159 119.804C430.607 119.806 430.161 120.255 430.163 120.808C430.165 121.36 430.615 121.806 431.167 121.804C433.085 121.797 434.646 121.797 435.85 121.804L435.96 121.798C437.122 121.676 437.964 120.753 438.032 119.634L438.029 119.479L437.016 108.889L437.193 103.001Z" fill="#482D1F"/>
<path d="M431.196 130.042C430.489 130.015 428.657 129.806 428.144 128.754C428.123 128.555 427.893 128.277 427.972 128.068C428.218 127.539 431.301 127.215 431.301 127.215C435.389 126.886 436.362 126.583 436.713 127.049C436.844 127.336 436.886 127.734 436.284 128.702C435.566 130.487 432.311 130.126 431.196 130.042Z" fill="#482D1F"/>
<path d="M588.418 338.011L725.771 345.209C732.448 345.559 734.833 346.381 737.206 347.815C739.578 349.248 741.394 351.264 742.571 353.774C743.749 356.283 744.317 358.741 743.967 365.418L743.049 382.936C742.699 389.613 741.877 391.998 740.444 394.371C739.01 396.743 736.994 398.559 734.485 399.736C731.975 400.914 729.517 401.482 722.84 401.132L585.487 393.934C578.81 393.584 576.425 392.762 574.052 391.328C571.679 389.895 569.864 387.879 568.686 385.369C567.509 382.86 566.94 380.402 567.29 373.725L568.208 356.207C568.558 349.53 569.381 347.145 570.814 344.772C572.247 342.4 574.264 340.584 576.773 339.407C579.283 338.229 581.74 337.661 588.418 338.011Z" fill="#474BFF"/>
<path d="M442.654 434.303L154.05 419.178C152.947 419.12 152.006 419.967 151.948 421.071L150.483 449.032C150.425 450.135 151.272 451.076 152.375 451.134L440.979 466.259C442.082 466.317 443.023 465.47 443.081 464.367L444.547 436.405C444.604 435.302 443.757 434.361 442.654 434.303Z" fill="#F2F6FB"/>
<path d="M629.487 444.808L465.712 436.225C464.609 436.167 463.668 437.014 463.61 438.117L462.145 466.079C462.087 467.182 462.934 468.123 464.037 468.181L627.813 476.764C628.916 476.822 629.857 475.974 629.915 474.871L631.38 446.91C631.438 445.807 630.59 444.866 629.487 444.808Z" fill="#F2F6FB"/>
<path d="M501.266 400.658C502.035 400.968 502.909 400.597 503.219 399.828C503.528 399.06 503.157 398.186 502.389 397.876C497.563 395.929 493.765 394.536 485.273 391.526C476.82 388.531 473.05 387.148 468.278 385.222C467.509 384.912 466.635 385.284 466.325 386.052C466.015 386.821 466.387 387.695 467.155 388.005C471.981 389.951 475.778 391.344 484.271 394.354C492.723 397.35 496.494 398.733 501.266 400.658ZM516.203 389.932C516.989 390.194 517.838 389.769 518.1 388.983C518.361 388.197 517.937 387.347 517.151 387.086C511.766 385.292 507.625 383.808 498.426 380.43C489.199 377.041 485.038 375.549 479.615 373.743C478.829 373.482 477.98 373.906 477.718 374.692C477.456 375.478 477.881 376.328 478.667 376.59C484.051 378.383 488.193 379.867 497.392 383.246C506.619 386.634 510.78 388.126 516.203 389.932Z" fill="#482D1F"/>
<path d="M369.408 246.531C376.95 225.958 381.332 211.204 382.558 202.202C382.669 201.381 382.094 200.625 381.274 200.514C380.453 200.402 379.697 200.977 379.585 201.798C378.396 210.526 374.064 225.116 366.592 245.499C366.306 246.277 366.706 247.138 367.484 247.423C368.261 247.709 369.123 247.309 369.408 246.531Z" fill="#482D1F"/>
</svg>
